<svg
                  width="24"
                  height="25"
                  viewBox="0 0 24 25"
                  fill="none"
                  xmlns="http://www.w3.org/2000/svg"
                >
                  <g clipPath="url(#clip0_366_549)">
                    <path
                      fillRule="evenodd"
                      clipRule="evenodd"
                      d="M1.91166 4.52718C1.76423 4.5629 1.51186 4.65866 1.35084 4.73994C1.05938 4.88708 0.46875 5.40266 0.46875 5.50991C0.46875 5.5409 2.03494 6.63908 3.94922 7.95036C5.8635 9.2616 8.17523 10.8474 9.08644 11.4744C9.99769 12.1014 10.8414 12.6654 10.9614 12.7278C11.608 13.0639 12.3953 13.0622 13.047 12.7234C13.1717 12.6585 13.7096 12.3043 14.2424 11.9362C14.9372 11.4561 22.1806 6.49855 23.5026 5.59827C23.5854 5.54193 23.5717 5.51769 23.2934 5.22786C22.9575 4.87804 22.4253 4.58132 21.9897 4.50097C21.8272 4.47097 18.2534 4.45579 11.9585 4.45827C3.79266 4.46155 2.13548 4.4729 1.91166 4.52718Z"
                      fill="white"
                    />
                    <path
                      fillRule="evenodd"
                      clipRule="evenodd"
                      d="M0.314424 5.73203C0.250486 5.84162 0.158799 6.03676 0.110705 6.16567C0.0273145 6.38921 0.0227207 6.67586 0.0108613 12.3739C-0.00273242 18.9043 -0.0176855 18.5087 0.265768 19.1075C0.445018 19.486 0.915971 19.9697 1.30353 20.1734C1.93846 20.507 1.16675 20.4846 11.9998 20.4846C20.5462 20.4846 21.8109 20.4757 22.0731 20.4139C22.9377 20.2101 23.665 19.513 23.9099 18.6534C23.9423 18.5399 23.9863 18.4269 24.0078 18.4024C24.058 18.345 24.0591 6.45718 24.0088 6.48826C23.988 6.50111 23.945 6.4127 23.9133 6.29181C23.8442 6.02786 23.6264 5.57973 23.5673 5.57973C23.5304 5.57973 16.9498 10.0657 14.2422 11.9365C13.7095 12.3047 13.1716 12.6589 13.0469 12.7237C12.3916 13.0644 11.6081 13.0644 10.9528 12.7237C10.8281 12.6589 10.2902 12.3045 9.75749 11.9362C9.22475 11.5679 7.06977 10.0895 4.9686 8.65089C2.86742 7.21229 0.986846 5.92215 0.789502 5.78396L0.430721 5.53271L0.314424 5.73203ZM0.0225801 12.4704C0.0225801 15.7575 0.0281582 17.1022 0.035002 15.4586C0.0418457 13.8151 0.0418457 11.1257 0.035002 9.48207C0.0281582 7.83854 0.0225801 9.18325 0.0225801 12.4704Z"
                      fill="#084887"
                    />
                  </g>
                  <defs>
                    <clipPath id="clip0_366_549">
                      <rect
                        width="24"
                        height="24"
                        fill="white"
                        transform="translate(0 0.470215)"
                      />
                    </clipPath>
                  </defs>
                </svg>